<svg width="34" height="33" viewBox="0 0 34 33" fill="none" xmlns="http://www.w3.org/2000/svg">
<path d="M23.9649 19.2937C24.0976 18.2325 24.1971 17.1714 24.1971 16.078C24.1971 14.9847 24.0976 13.9236 23.9649 12.8624H29.569C29.8343 13.8914 30.0001 14.9687 30.0001 16.078C30.0001 17.1874 29.8343 18.2647 29.569 19.2937H23.9649ZM21.0302 28.2331C22.0251 26.4484 22.7877 24.519 23.3183 22.5093H28.2095C26.6031 25.1915 24.0547 27.2233 21.0302 28.2331ZM20.6157 19.2937H12.8562C12.6904 18.2325 12.5909 17.1714 12.5909 16.078C12.5909 14.9847 12.6904 13.9075 12.8562 12.8624H20.6157C20.765 13.9075 20.881 14.9847 20.881 16.078C20.881 17.1714 20.765 18.2325 20.6157 19.2937ZM16.736 28.8762C15.3598 26.9468 14.2489 24.8084 13.5691 22.5093H19.9028C19.223 24.8084 18.1121 26.9468 16.736 28.8762ZM10.1039 9.64683H5.26247C6.85227 6.95732 9.39889 4.92227 12.4251 3.92304C11.4303 5.70771 10.6842 7.63707 10.1039 9.64683ZM5.26247 22.5093H10.1039C10.6842 24.519 11.4303 26.4484 12.4251 28.2331C9.40524 27.2228 6.8622 25.1906 5.26247 22.5093ZM3.90289 19.2937C3.63761 18.2647 3.4718 17.1874 3.4718 16.078C3.4718 14.9687 3.63761 13.8914 3.90289 12.8624H9.507C9.37436 13.9236 9.27488 14.9847 9.27488 16.078C9.27488 17.1714 9.37436 18.2325 9.507 19.2937H3.90289ZM16.736 3.26384C18.1121 5.19321 19.223 7.34767 19.9028 9.64683H13.5691C14.2489 7.34767 15.3598 5.19321 16.736 3.26384ZM28.2095 9.64683H23.3183C22.7994 7.6555 22.031 5.73326 21.0302 3.92304C24.081 4.93596 26.6178 6.97787 28.2095 9.64683ZM16.736 0C7.56711 0 0.155762 7.23512 0.155762 16.078C0.155762 20.3422 1.9026 24.4317 5.01199 27.4469C6.55161 28.9399 8.37939 30.1242 10.391 30.9322C12.4026 31.7402 14.5586 32.1561 16.736 32.1561C21.1333 32.1561 25.3506 30.4622 28.4599 27.4469C31.5693 24.4317 33.3162 20.3422 33.3162 16.078C33.3162 13.9666 32.8873 11.8759 32.0541 9.92525C31.2209 7.97457 29.9996 6.20214 28.4599 4.70915C26.9203 3.21617 25.0925 2.03187 23.0809 1.22387C21.0693 0.415871 18.9133 0 16.736 0Z" fill="white"/>
</svg>
