<svg width="33" height="33" viewBox="0 0 33 33" fill="none" xmlns="http://www.w3.org/2000/svg">
<path d="M16.0778 0C20.4461 0 20.9911 0.016078 22.705 0.0964682C24.4173 0.176858 25.583 0.445362 26.6087 0.844098C27.6699 1.25248 28.5638 1.80556 29.4577 2.6979C30.2753 3.50163 30.9078 4.47386 31.3115 5.54693C31.7086 6.5711 31.9787 7.73836 32.0591 9.45068C32.1347 11.1646 32.1556 11.7096 32.1556 16.078C32.1556 20.4465 32.1395 20.9915 32.0591 22.7054C31.9787 24.4177 31.7086 25.5834 31.3115 26.6092C30.909 27.6828 30.2763 28.6553 29.4577 29.4582C28.6538 30.2755 27.6816 30.908 26.6087 31.312C25.5846 31.7091 24.4173 31.9792 22.705 32.0596C20.9911 32.1352 20.4461 32.1561 16.0778 32.1561C11.7094 32.1561 11.1644 32.14 9.45052 32.0596C7.73823 31.9792 6.5726 31.7091 5.54683 31.312C4.47336 30.9092 3.50098 30.2765 2.69785 29.4582C1.88015 28.6546 1.24753 27.6823 0.844083 26.6092C0.445355 25.585 0.176855 24.4177 0.0964666 22.7054C0.020901 20.9915 0 20.4465 0 16.078C0 11.7096 0.0160777 11.1646 0.0964666 9.45068C0.176855 7.73676 0.445355 6.57271 0.844083 5.54693C1.24641 4.4732 1.87918 3.50071 2.69785 2.6979C3.50121 1.8799 4.47353 1.24722 5.54683 0.844098C6.5726 0.445362 7.73663 0.176858 9.45052 0.0964682C11.1644 0.0209014 11.7094 0 16.0778 0ZM16.0778 8.03902C13.9457 8.03902 11.901 8.88599 10.3934 10.3936C8.88584 11.9012 8.03889 13.946 8.03889 16.078C8.03889 18.2101 8.88584 20.2549 10.3934 21.7625C11.901 23.2701 13.9457 24.1171 16.0778 24.1171C18.2098 24.1171 20.2545 23.2701 21.7621 21.7625C23.2697 20.2549 24.1167 18.2101 24.1167 16.078C24.1167 13.946 23.2697 11.9012 21.7621 10.3936C20.2545 8.88599 18.2098 8.03902 16.0778 8.03902ZM26.5283 7.63707C26.5283 7.10405 26.3166 6.59286 25.9397 6.21596C25.5628 5.83906 25.0516 5.62732 24.5186 5.62732C23.9856 5.62732 23.4744 5.83906 23.0975 6.21596C22.7206 6.59286 22.5089 7.10405 22.5089 7.63707C22.5089 8.17009 22.7206 8.68128 23.0975 9.05819C23.4744 9.43509 23.9856 9.64683 24.5186 9.64683C25.0516 9.64683 25.5628 9.43509 25.9397 9.05819C26.3166 8.68128 26.5283 8.17009 26.5283 7.63707ZM16.0778 11.2546C17.357 11.2546 18.5838 11.7628 19.4884 12.6674C20.3929 13.5719 20.9011 14.7988 20.9011 16.078C20.9011 17.3573 20.3929 18.5842 19.4884 19.4887C18.5838 20.3933 17.357 20.9015 16.0778 20.9015C14.7986 20.9015 13.5717 20.3933 12.6672 19.4887C11.7626 18.5842 11.2544 17.3573 11.2544 16.078C11.2544 14.7988 11.7626 13.5719 12.6672 12.6674C13.5717 11.7628 14.7986 11.2546 16.0778 11.2546Z" fill="white"/>
</svg>
